<?xml version="1.0" standalone="no"?><svg xmlns="http://www.w3.org/2000/svg" viewBox="0 0 1440 320"><path fill="#273036" fill-opacity="1" d="M0,0L40,10.7C80,21,160,43,240,85.3C320,128,400,192,480,208C560,224,640,192,720,197.3C800,203,880,245,960,261.3C1040,277,1120,267,1200,224C1280,181,1360,107,1400,69.3L1440,32L1440,320L1400,320C1360,320,1280,320,1200,320C1120,320,1040,320,960,320C880,320,800,320,720,320C640,320,560,320,480,320C400,320,320,320,240,320C160,320,80,320,40,320L0,320Z"></path></svg>